<svg xmlns="http://www.w3.org/2000/svg" xmlns:xlink="http://www.w3.org/1999/xlink" version="1.1" viewBox="169.12799 252.44529 122.15201 98.13091" width="122.2" height="98.1">
  <g>
    <!-- Background white path under the monogram square -->
    <path transform="matrix(1,0,0,-1,282.96,350.5762)" d="M0 0H-105.513C-110.108 0-113.832 3.724-113.832 8.315V89.812C-113.832 94.403-110.108 98.125-105.513 98.125H0C4.596 98.125 8.32 94.403 8.32 89.812V8.315C8.32 3.724 4.596 0 0 0" fill="#ffffff"/>
    
    <!-- Red rounded square of the monogram -->
    <path transform="matrix(1,0,0,-1,282.96,350.5723)" d="M0 0H-105.513C-110.108 0-113.832 3.726-113.832 8.316V89.811C-113.832 94.404-110.108 98.127-105.513 98.127H0C4.596 98.127 8.32 94.404 8.32 89.811V8.316C8.32 3.726 4.596 0 0 0" fill="#ee2f49"/>
    
    <!-- White monogram paths inside -->
    <path transform="matrix(1,0,0,-1,279.37,334.178)" d="M0 0-.007 61.061C-.007 63.364-1.87 65.239-4.159 65.239H-39.311C-41.599 65.239-43.46 63.364-43.46 61.061V61.056 37.548 .007H-35.154L-35.144 30.499H-20.324V37.717H-35.142L-35.135 56.85V56.853H-8.333V4.308C-8.333 4.142-8.32 3.989-8.311 3.964L-8.309 0V-.005H-.001V0Z" fill="#ffffff"/>
    <path transform="matrix(1,0,0,-1,188.1476,280.0245)" d="M0 0V-.005H-.001V-42.971H7.218V-.005H7.216V0Z" fill="#ffffff"/>
    <path transform="matrix(1,0,0,-1,221.8937,268.8472)" d="M0 0H-40.837V-.003-8.242-8.249L-38.484-8.243-36.954-8.244C-36.828-8.256-36.7-8.269-36.571-8.269H-.88V-23.923L-23.424-23.941V-23.943-27.427C-23.485-27.837-23.48-28.251-23.424-28.485V-32.187-32.19H-.014C4.599-32.19 7.464-29.359 7.464-24.805V-24.8-7.375-7.373C7.464-3.307 4.116 0 0 0" fill="#ffffff"/>
    <path transform="matrix(1,0,0,-1,221.0197,303.0464)" d="M0 0-.09-22.683C-18.8-22.75-36.394-22.711-36.397-22.708L-37.988-22.706V-30.945L-36.4-30.947C-36.4-30.947-28.381-30.95-19.724-30.95-11.057-30.95-1.749-30.947 .784-30.937 4.949-30.92 8.338-27.606 8.338-23.542L8.31 0Z" fill="#ffffff"/>
  </g>
</svg>
