<svg xmlns="http://www.w3.org/2000/svg" xmlns:xlink="http://www.w3.org/1999/xlink" version="1.1" viewBox="169.12799 252.44529 487.60058 98.13091" width="487.6" height="98.1">
  <g>
    <!-- Background white path under the monogram square -->
    <path transform="matrix(1,0,0,-1,282.96,350.5762)" d="M0 0H-105.513C-110.108 0-113.832 3.724-113.832 8.315V89.812C-113.832 94.403-110.108 98.125-105.513 98.125H0C4.596 98.125 8.32 94.403 8.32 89.812V8.315C8.32 3.724 4.596 0 0 0" fill="#ffffff"/>
    
    <!-- Red rounded square of the monogram -->
    <path transform="matrix(1,0,0,-1,282.96,350.5723)" d="M0 0H-105.513C-110.108 0-113.832 3.726-113.832 8.316V89.811C-113.832 94.404-110.108 98.127-105.513 98.127H0C4.596 98.127 8.32 94.404 8.32 89.811V8.316C8.32 3.726 4.596 0 0 0" fill="#ee2f49"/>
    
    <!-- White monogram paths inside -->
    <path transform="matrix(1,0,0,-1,279.37,334.178)" d="M0 0-.007 61.061C-.007 63.364-1.87 65.239-4.159 65.239H-39.311C-41.599 65.239-43.46 63.364-43.46 61.061V61.056 37.548 .007H-35.154L-35.144 30.499H-20.324V37.717H-35.142L-35.135 56.85V56.853H-8.333V4.308C-8.333 4.142-8.32 3.989-8.311 3.964L-8.309 0V-.005H-.001V0Z" fill="#ffffff"/>
    <path transform="matrix(1,0,0,-1,188.1476,280.0245)" d="M0 0V-.005H-.001V-42.971H7.218V-.005H7.216V0Z" fill="#ffffff"/>
    <path transform="matrix(1,0,0,-1,221.8937,268.8472)" d="M0 0H-40.837V-.003-8.242-8.249L-38.484-8.243-36.954-8.244C-36.828-8.256-36.7-8.269-36.571-8.269H-.88V-23.923L-23.424-23.941V-23.943-27.427C-23.485-27.837-23.48-28.251-23.424-28.485V-32.187-32.19H-.014C4.599-32.19 7.464-29.359 7.464-24.805V-24.8-7.375-7.373C7.464-3.307 4.116 0 0 0" fill="#ffffff"/>
    <path transform="matrix(1,0,0,-1,221.0197,303.0464)" d="M0 0-.09-22.683C-18.8-22.75-36.394-22.711-36.397-22.708L-37.988-22.706V-30.945L-36.4-30.947C-36.4-30.947-28.381-30.95-19.724-30.95-11.057-30.95-1.749-30.947 .784-30.937 4.949-30.92 8.338-27.606 8.338-23.542L8.31 0Z" fill="#ffffff"/>
    
    <!-- BAKEN Text Paths (White) -->
    <path transform="matrix(1,0,0,-1,317.3612,254.97699)" d="M0 0H28.238C31.699 0 34.662-.421 37.126-1.26 39.592-2.101 41.636-3.336 43.263-4.964 44.364-6.067 45.229-7.354 45.859-8.825 46.488-10.296 46.803-11.976 46.803-13.868V-14.025C46.803-17.23 46.005-19.816 44.412-21.786 42.818-23.756 40.793-25.266 38.337-26.317 41.71-27.42 44.383-29.009 46.359-31.084 48.335-33.159 49.324-36.061 49.324-39.791V-39.948C49.324-44.729 47.499-48.458 43.849-51.137 40.196-53.815 35.063-55.155 28.445-55.155H0ZM24.504-21.983V-21.983C26.868-21.983 28.667-21.589 29.902-20.801 31.135-20.013 31.753-18.805 31.753-17.177V-17.019C31.753-15.496 31.174-14.328 30.02-13.513 28.864-12.699 27.13-12.292 24.819-12.292H14.892V-21.983ZM26.711-42.863V-42.863C29.074-42.863 30.887-42.43 32.148-41.564 33.408-40.696 34.038-39.449 34.038-37.82V-37.663C34.038-36.14 33.434-34.932 32.225-34.039 31.018-33.146 29.126-32.699 26.553-32.699H14.892V-42.863Z" fill="#ffffff"/>
    <path transform="matrix(1,0,0,-1,406.633,254.5827)" d="M0 0H14.734L38.215-55.549H21.825L17.807-45.699H-3.466L-7.406-55.549H-23.48ZM13.394-33.881V-33.881L7.249-18.201 1.024-33.881Z" fill="#ffffff"/>
    <path transform="matrix(1,0,0,-1,460.4476,254.97699)" d="M0 0H15.286V-22.377L34.275 0H52.398L31.518-23.716 53.106-55.155H34.748L20.881-34.669 15.286-40.893V-55.155H0Z" fill="#ffffff"/>
    <path transform="matrix(1,0,0,-1,536.72,254.97699)" d="M0 0H44.282V-13.001H15.049V-21.353H41.524V-33.408H15.049V-42.155H44.675V-55.155H0Z" fill="#ffffff"/>
    <path transform="matrix(1,0,0,-1,604.2449,254.97699)" d="M0 0H14.292L37.032-29.153V0H52.082V-55.155H38.659L15.05-24.898V-55.155H0Z" fill="#ffffff"/>

    <!-- CONSTRUTORA Text Paths (White) -->
    <path transform="matrix(1,0,0,-1,333.686,347.5971)" d="M0 0C-.955-.478-2.865-.955-5.312-.955-10.983-.955-15.251 2.627-15.251 9.223-15.251 15.521-10.983 19.788-4.746 19.788-2.238 19.788-.656 19.251 .03 18.893L-.597 16.774C-1.582 17.251-2.984 17.609-4.656 17.609-9.372 17.609-12.505 14.595-12.505 9.313-12.505 4.388-9.67 1.224-4.775 1.224-3.193 1.224-1.582 1.553-.537 2.06Z" fill="#ffffff"/>
    <path transform="matrix(1,0,0,-1,352.8135,338.3149)" d="M0 0C0-4.298 2.328-8.147 6.417-8.147 10.536-8.147 12.864-4.357 12.864 .209 12.864 4.209 10.774 8.387 6.447 8.387 2.149 8.387 0 4.418 0 0M15.609 .328C15.609-6.596 11.401-10.267 6.268-10.267 .955-10.267-2.775-6.148-2.775-.06-2.775 6.328 1.194 10.506 6.566 10.506 12.058 10.506 15.609 6.298 15.609 .328" fill="#ffffff"/>
    <path transform="matrix(1,0,0,-1,386.7139,348.25343)" d="M0 0V20.116H2.835L9.282 9.938C10.775 7.581 11.938 5.462 12.894 3.402L12.954 3.433C12.715 6.118 12.655 8.565 12.655 11.7V20.116H15.103V0H12.476L6.089 10.207C4.686 12.446 3.343 14.744 2.328 16.923L2.239 16.893C2.388 14.356 2.448 11.938 2.448 8.596V0Z" fill="#ffffff"/>
    <path transform="matrix(1,0,0,-1,420.9131,345.0893)" d="M0 0C1.164-.717 2.865-1.313 4.656-1.313 7.312-1.313 8.864 .089 8.864 2.119 8.864 3.999 7.79 5.073 5.074 6.118 1.791 7.282-.239 8.983-.239 11.818-.239 14.952 2.357 17.28 6.268 17.28 8.327 17.28 9.819 16.803 10.715 16.296L9.998 14.177C9.342 14.535 7.999 15.132 6.178 15.132 3.433 15.132 2.388 13.49 2.388 12.117 2.388 10.237 3.611 9.312 6.387 8.237 9.79 6.924 11.521 5.282 11.521 2.327 11.521-.776 9.223-3.463 4.477-3.463 2.537-3.463 .418-2.896-.657-2.179Z" fill="#ffffff"/>
    <path transform="matrix(1,0,0,-1,454.7256,330.3461)" d="M0 0H-6.119V2.209H8.774V0H2.626V-17.907H0Z" fill="#ffffff"/>
    <path transform="matrix(1,0,0,-1,483.2549,337.5688)" d="M0 0H2.656C5.432 0 7.192 1.522 7.192 3.82 7.192 6.417 5.312 7.552 2.566 7.581 1.312 7.581 .418 7.462 0 7.343ZM-2.597 9.163C-1.284 9.432 .597 9.581 2.388 9.581 5.163 9.581 6.954 9.073 8.207 7.939 9.222 7.044 9.789 5.671 9.789 4.119 9.789 1.463 8.118-.298 5.999-1.015V-1.104C7.551-1.642 8.476-3.074 8.953-5.163 9.61-7.969 10.088-9.908 10.506-10.685H7.819C7.491-10.117 7.043-8.387 6.477-5.879 5.88-3.104 4.805-2.059 2.447-1.97H0V-10.685H-2.597Z" fill="#ffffff"/>
    <path transform="matrix(1,0,0,-1,514.2314,328.13713)" d="M0 0V-11.908C0-16.415 1.999-18.325 4.686-18.325 7.67-18.325 9.58-16.355 9.58-11.908V0H12.207V-11.729C12.207-17.907 8.953-20.444 4.596-20.444 .478-20.444-2.627-18.087-2.627-11.849V0Z" fill="#ffffff"/>
    <path transform="matrix(1,0,0,-1,549.6836,330.3461)" d="M0 0H-6.119V2.209H8.774V0H2.626V-17.907H0Z" fill="#ffffff"/>
    <path transform="matrix(1,0,0,-1,576.3926,338.3149)" d="M0 0C0-4.298 2.327-8.147 6.416-8.147 10.535-8.147 12.863-4.357 12.863 .209 12.863 4.209 10.774 8.387 6.446 8.387 2.148 8.387 0 4.418 0 0M15.609 .328C15.609-6.596 11.4-10.267 6.268-10.267 .955-10.267-2.776-6.148-2.776-.06-2.776 6.328 1.193 10.506 6.565 10.506 12.058 10.506 15.609 6.298 15.609 .328" fill="#ffffff"/>
    <path transform="matrix(1,0,0,-1,612.8896,337.5688)" d="M0 0H2.656C5.432 0 7.192 1.522 7.192 3.82 7.192 6.417 5.312 7.552 2.566 7.581 1.312 7.581 .418 7.462 0 7.343ZM-2.597 9.163C-1.284 9.432 .597 9.581 2.388 9.581 5.163 9.581 6.954 9.073 8.207 7.939 9.222 7.044 9.789 5.671 9.789 4.119 9.789 1.463 8.118-.298 5.999-1.015V-1.104C7.551-1.642 8.476-3.074 8.953-5.163 9.61-7.969 10.088-9.908 10.506-10.685H7.819C7.491-10.117 7.043-8.387 6.477-5.879 5.88-3.104 4.805-2.059 2.447-1.97H0V-10.685H-2.597Z" fill="#ffffff"/>
    <path transform="matrix(1,0,0,-1,651.2666,339.8969)" d="M0 0-1.97 5.791C-2.417 7.104-2.716 8.298-3.014 9.462H-3.074C-3.372 8.268-3.7 7.044-4.089 5.82L-6.059 0ZM-6.596-2.029-8.685-8.356H-11.371L-4.536 11.76H-1.402L5.462-8.356H2.687L.538-2.029Z" fill="#ffffff"/>
  </g>
</svg>
